<svg width="53" height="53" viewBox="0 0 53 53" fill="none" xmlns="http://www.w3.org/2000/svg">
<g filter="url(#filter0_d_4_177)">
<circle cx="26.5" cy="22.5" r="22.5" fill="white"/>
</g>
<path d="M26.8082 3.69861C16.2517 3.69861 7.69861 12.2517 7.69861 22.8082C7.69861 33.3647 16.2517 41.9178 26.8082 41.9178C37.3647 41.9178 45.9178 33.3647 45.9178 22.8082C45.9178 12.2517 37.3647 3.69861 26.8082 3.69861ZM26.8082 11.0959C30.5531 11.0959 33.589 14.1318 33.589 17.8767C33.589 21.6216 30.5531 24.6575 26.8082 24.6575C23.0633 24.6575 20.0274 21.6216 20.0274 17.8767C20.0274 14.1318 23.0633 11.0959 26.8082 11.0959ZM26.8082 37.6027C22.2851 37.6027 18.232 35.5531 15.5197 32.3476C16.9683 29.6198 19.8039 27.7397 23.1096 27.7397C23.2945 27.7397 23.4794 27.7705 23.6567 27.8245C24.6584 28.1481 25.7063 28.3561 26.8082 28.3561C27.9101 28.3561 28.9657 28.1481 29.9597 27.8245C30.137 27.7705 30.3219 27.7397 30.5068 27.7397C33.8125 27.7397 36.6481 29.6198 38.0967 32.3476C35.3844 35.5531 31.3313 37.6027 26.8082 37.6027Z" fill="url(#paint0_radial_4_177)"/>
<defs>
<filter id="filter0_d_4_177" x="0" y="0" width="53" height="53" filterUnits="userSpaceOnUse" color-interpolation-filters="sRGB">
<feFlood flood-opacity="0" result="BackgroundImageFix"/>
<feColorMatrix in="SourceAlpha" type="matrix" values="0 0 0 0 0 0 0 0 0 0 0 0 0 0 0 0 0 0 127 0" result="hardAlpha"/>
<feOffset dy="4"/>
<feGaussianBlur stdDeviation="2"/>
<feComposite in2="hardAlpha" operator="out"/>
<feColorMatrix type="matrix" values="0 0 0 0 0 0 0 0 0 0 0 0 0 0 0 0 0 0 0.25 0"/>
<feBlend mode="normal" in2="BackgroundImageFix" result="effect1_dropShadow_4_177"/>
<feBlend mode="normal" in="SourceGraphic" in2="effect1_dropShadow_4_177" result="shape"/>
</filter>
<radialGradient id="paint0_radial_4_177" cx="0" cy="0" r="1" gradientUnits="userSpaceOnUse" gradientTransform="translate(34.2055 35.137) rotate(-127.003) scale(26.6302)">
<stop offset="0.37675"/>
<stop offset="0.943057" stop-color="#191919"/>
</radialGradient>
</defs>
</svg>
